<?xml version="1.0" encoding="UTF-8"?>
<svg id="Layer_1" xmlns="http://www.w3.org/2000/svg" version="1.1" viewBox="0 0 50 50">
  <!-- Generator: Adobe Illustrator 29.6.0, SVG Export Plug-In . SVG Version: 2.1.1 Build 57)  -->
  <defs>
    <style>
      .st0 {
        fill: #ff601a;
      }
    </style>
  </defs>
  <path class="st0" d="M16,3c-7.17,0-13,5.83-13,13v18c0,7.17,5.83,13,13,13h18c7.17,0,13-5.83,13-13V16c0-7.17-5.83-13-13-13h-18ZM37,11c1.1,0,2,.9,2,2s-.9,2-2,2-2-.9-2-2,.9-2,2-2ZM25,14c6.07,0,11,4.93,11,11s-4.93,11-11,11-11-4.93-11-11,4.93-11,11-11ZM25,16c-4.96,0-9,4.04-9,9s4.04,9,9,9,9-4.04,9-9-4.04-9-9-9Z"/>
</svg>