<?xml version="1.0" encoding="UTF-8"?>
<svg id="Layer_1" xmlns="http://www.w3.org/2000/svg" version="1.1" viewBox="0 0 200 200">
  <!-- Generator: Adobe Illustrator 29.6.0, SVG Export Plug-In . SVG Version: 2.1.1 Build 57)  -->
  <defs>
    <style>
      .st0 {
        fill: #ff601a;
      }
    </style>
  </defs>
  <path class="st0" d="M164,16H36c-11,0-20,9-20,20v128c0,11,9,20,20,20h128c11,0,20-9,20-20V36c0-11-9-20-20-20ZM44,76h24c2.21,0,4,1.79,4,4v76c0,2.21-1.79,4-4,4h-24c-2.21,0-4-1.79-4-4v-76c0-2.21,1.79-4,4-4ZM40.05,57.87c0-3.92,1.79-7.59,4.71-10.05,2.92-2.46,6.86-3.77,11.24-3.77h0c8.77,0,15.54,6,15.95,13.6v.21c0,7.72-6.86,14.09-15.95,14.09-.42,0-.83-.08-1.22-.21h-.02c-8.24-.58-14.72-6.4-14.72-13.87ZM160,156c0,2.21-1.79,4-4,4h-24c-2.21,0-4-1.79-4-4v-40c0-3.33-.88-6.51-2.46-8.63-1.58-2.12-3.67-3.47-7.61-3.54-3.82-.07-5.84,1.23-7.43,3.39-1.59,2.16-2.5,5.46-2.5,8.78v40c0,2.21-1.79,4-4,4h-24c-2.21,0-4-1.79-4-4v-76c0-2.21,1.79-4,4-4h24c2.21,0,4,1.79,4,4v1.7c4.44-2.88,10.4-5.7,19.25-5.7s17.22,3.12,23.23,9.47,9.52,15.73,9.52,27.58v42.95Z"/>
</svg>