<?xml version="1.0" encoding="UTF-8"?>
<svg id="Layer_1" xmlns="http://www.w3.org/2000/svg" version="1.1" viewBox="0 0 50 50">
  <!-- Generator: Adobe Illustrator 29.6.0, SVG Export Plug-In . SVG Version: 2.1.1 Build 57)  -->
  <defs>
    <style>
      .st0 {
        fill: #ff601a;
      }
    </style>
  </defs>
  <path class="st0" d="M11,4c-3.87,0-7,3.13-7,7v28c0,3.87,3.13,7,7,7h28c3.87,0,7-3.13,7-7V11c0-3.87-3.13-7-7-7H11ZM13.09,13h7.94l5.64,8.01,6.84-8.01h2.5l-8.21,9.61,10.12,14.39h-7.94l-6.54-9.29-7.94,9.29h-2.5l9.31-10.9-9.22-13.1ZM16.91,15l14.11,20h3.06l-14.11-20h-3.06Z"/>
</svg>